<?xml version="1.0" encoding="UTF-8" standalone="no"?><!DOCTYPE svg PUBLIC "-//W3C//DTD SVG 1.1//EN" "http://www.w3.org/Graphics/SVG/1.1/DTD/svg11.dtd"><svg width="100%" height="100%" viewBox="0 0 60 58" version="1.1" xmlns="http://www.w3.org/2000/svg" xmlns:xlink="http://www.w3.org/1999/xlink" xml:space="preserve" xmlns:serif="http://www.serif.com/" style="fill-rule:evenodd;clip-rule:evenodd;stroke-linejoin:round;stroke-miterlimit:2;"><g><path d="M29.62,0c-16.355,0 -29.616,13.219 -29.616,29.527c-0,13.04 8.485,24.11 20.256,28.01c1.482,0.27 2.02,-0.642 2.02,-1.425c-0,-0.7 -0.025,-2.557 -0.04,-5.02c-8.238,1.784 -9.976,-3.958 -9.976,-3.958c-1.347,-3.411 -3.289,-4.317 -3.289,-4.317c-2.689,-1.832 0.204,-1.796 0.204,-1.796c2.973,0.21 4.536,3.043 4.536,3.043c2.642,4.511 6.931,3.208 8.62,2.454c0.269,-1.909 1.033,-3.21 1.88,-3.948c-6.576,-0.745 -13.491,-3.279 -13.491,-14.592c-0,-3.223 1.155,-5.858 3.049,-7.922c-0.305,-0.747 -1.322,-3.748 0.289,-7.814c-0,-0 2.487,-0.794 8.145,3.03c2.362,-0.656 4.896,-0.982 7.415,-0.995c2.515,0.013 5.05,0.339 7.415,0.995c5.655,-3.821 8.136,-3.03 8.136,-3.03c1.616,4.065 0.6,7.07 0.295,7.814c1.898,2.064 3.045,4.7 3.045,7.922c-0,11.343 -6.925,13.838 -13.524,14.569c1.064,0.912 2.01,2.713 2.01,5.468c0,3.946 -0.036,7.13 -0.036,8.098c-0,0.79 0.533,1.709 2.036,1.421c11.758,-3.913 20.238,-14.971 20.238,-28.01c0,-16.309 -13.262,-29.527 -29.62,-29.527" style="fill:#0096ff;"/></g></svg>